<svg xmlns="http://www.w3.org/2000/svg" width="1200" height="300" viewBox="0 0 1200 300"><path fill="#FDBFCA" d="M1.052 250.526v-50.526h1200v94.736h-1200v-42.104c6.62.008 13.241.044 19.86-.015.731-.006 1.458-.548 2.187-.842-.733-.479-1.463-1.363-2.2-1.368-6.616-.049-13.232.059-19.847.119zm79.735 2.137c3.125 0 6.251.065 9.371-.053.653-.025 1.281-.726 1.92-1.114-.659-.388-1.314-1.104-1.978-1.111-6.247-.078-12.496-.06-18.744.01-.553.006-1.1.571-1.649.877.569.459 1.123 1.29 1.709 1.315 3.12.132 6.247.062 9.371.076zm103.37.007c2.981 0 5.968.088 8.942-.058.81-.04 1.585-.787 2.376-1.208-.696-.357-1.387-1.016-2.086-1.025-6.137-.08-12.277-.081-18.415.012-.623.009-1.235.789-1.853 1.212.697.354 1.382.987 2.092 1.015 2.977.113 5.961.047 8.944.052zm103.157 0c2.981 0 5.968.088 8.942-.058.81-.04 1.584-.787 2.376-1.208-.695-.357-1.387-1.016-2.086-1.025-6.137-.08-12.277-.081-18.415.012-.624.009-1.236.789-1.853 1.212.697.354 1.383.987 2.092 1.015 2.978.113 5.963.047 8.944.052zm103.478-.006c2.982 0 5.966.066 8.944-.047.698-.026 1.373-.654 2.058-1.004-.626-.426-1.247-1.21-1.879-1.221-6.138-.095-12.278-.094-18.416-.016-.694.01-1.379.663-2.068 1.019.805.426 1.595 1.177 2.419 1.218 2.973.149 5.96.059 8.942.051zm102.921-2.339c-2.95 0-5.904-.093-8.846.062-.779.041-1.52.839-2.278 1.289.71.331 1.417.938 2.13.946 6.072.076 12.146.076 18.218-.005.675-.01 1.341-.665 2.012-1.021-.622-.42-1.23-1.176-1.868-1.201-3.119-.126-6.245-.058-9.368-.07zm33.883 2.321v-.021c3.471 0 6.944.042 10.413-.048.487-.014.957-.682 1.435-1.047-.475-.381-.946-1.087-1.426-1.094-6.421-.085-12.844-.108-19.265-.024-.565.007-1.118.878-1.677 1.348.556.296 1.104.831 1.667.847 2.949.084 5.902.039 8.853.039zm69.124-.021v.037c3.157 0 6.317.066 9.47-.053.652-.026 1.278-.74 1.917-1.138-.499-.363-.993-1.037-1.495-1.042-6.487-.069-12.975-.066-19.461.009-.471.006-.935.715-1.401 1.097.5.363.992 1.026 1.503 1.042 3.152.098 6.31.048 9.467.048zm34.925.041c2.951 0 5.906.062 8.854-.045.712-.025 1.402-.612 2.104-.941-.596-.447-1.188-1.273-1.791-1.283-6.248-.096-12.5-.096-18.748-.005-.617.008-1.224.789-1.835 1.212.681.354 1.352.987 2.044 1.012 3.12.109 6.247.047 9.372.05zm68.543.009c2.806 0 5.615.078 8.417-.045.898-.04 1.772-.613 2.659-.942-.776-.454-1.545-1.287-2.329-1.301-5.961-.11-11.925-.093-17.887-.015-.721.009-1.434.617-2.148.948.781.45 1.544 1.246 2.346 1.287 2.974.156 5.96.064 8.942.068zm34.296-.012c3.126 0 6.254.065 9.375-.053.652-.025 1.279-.728 1.919-1.118-.664-.386-1.323-1.1-1.992-1.107-6.25-.078-12.501-.059-18.752.012-.552.007-1.095.575-1.643.882.571.458 1.127 1.285 1.719 1.31 3.119.131 6.247.061 9.374.074zm68.837.003c2.981 0 5.965.062 8.943-.043.729-.025 1.439-.593 2.157-.91-.592-.458-1.179-1.305-1.777-1.313-6.312-.094-12.626-.079-18.939-.012-.553.006-1.1.591-1.648.907.598.455 1.181 1.277 1.796 1.303 3.152.133 6.311.061 9.468.068zm34.321-.003c3.126 0 6.254.065 9.375-.053.653-.025 1.28-.728 1.919-1.118-.664-.386-1.322-1.1-1.992-1.107-6.25-.078-12.501-.059-18.752.012-.551.007-1.095.575-1.643.882.572.458 1.128 1.285 1.719 1.31 3.12.131 6.248.061 9.374.074zm68.166-.003c3.333 0 6.668.066 9.995-.06.607-.023 1.186-.826 1.777-1.27-.545-.323-1.086-.924-1.634-.931-6.312-.072-12.627-.092-18.938-.005-.599.009-1.186.834-1.777 1.28.72.331 1.43.917 2.16.945 2.802.114 5.611.047 8.417.041zm35.102.01c2.951 0 5.907.089 8.853-.059.794-.04 1.554-.798 2.329-1.227-.701-.352-1.398-.998-2.104-1.008-6.076-.08-12.154-.079-18.23.001-.687.01-1.366.659-2.049 1.012.781.427 1.547 1.181 2.348 1.221 2.944.147 5.9.059 8.853.06zm68.757.005c2.807 0 5.616.078 8.418-.045.898-.04 1.772-.614 2.658-.944-.778-.453-1.548-1.285-2.333-1.299-5.963-.11-11.929-.093-17.891-.015-.72.009-1.432.62-2.146.951.782.449 1.547 1.243 2.35 1.286 2.974.154 5.962.062 8.944.066zm34.323-.013c3.125 0 6.251.066 9.371-.056.639-.024 1.249-.754 1.872-1.159-.502-.358-1-1.023-1.506-1.03-6.42-.073-12.842-.075-19.261-.014-.538.005-1.069.596-1.603.914.585.446 1.154 1.253 1.755 1.277 3.121.13 6.248.061 9.372.068zm103.029.002c3.124 0 6.251.063 9.372-.049.68-.023 1.338-.674 2.005-1.034-.632-.415-1.257-1.181-1.894-1.19-6.074-.095-12.151-.108-18.225-.002-.757.014-1.498.858-2.246 1.318.711.319 1.414.889 2.136.914 2.947.106 5.9.043 8.852.043zm-171.317-2.295v.017c-3.315 0-6.632-.046-9.944.049-.49.015-.963.691-1.442 1.062.466.374.928 1.067 1.4 1.072 6.28.081 12.563.1 18.844.012.571-.008 1.13-.847 1.694-1.301-.551-.304-1.095-.853-1.654-.869-2.963-.09-5.931-.042-8.898-.042zm-103.17-.003v.027c-3.314 0-6.629-.045-9.938.051-.482.013-.945.698-1.417 1.074.471.364.938 1.043 1.414 1.049 6.277.078 12.556.085 18.834.033.562-.005 1.118-.533 1.677-.818-.559-.473-1.1-1.325-1.678-1.353-2.959-.138-5.928-.063-8.892-.063zm205.891 2.289c2.965 0 5.933.061 8.894-.044.709-.026 1.398-.604 2.098-.93-.591-.442-1.177-1.259-1.774-1.269-6.103-.097-12.209-.099-18.312-.008-.617.009-1.224.79-1.835 1.214.678.346 1.347.962 2.036.987 2.96.112 5.927.049 8.893.05zm35.041-2.294v.032c-3.314 0-6.631-.044-9.943.05-.483.013-.949.687-1.425 1.056.468.371.932 1.059 1.403 1.064 6.281.082 12.562.091 18.844.042.567-.005 1.131-.531 1.696-.814-.56-.477-1.1-1.337-1.679-1.364-2.96-.14-5.93-.066-8.896-.066zm-344.925 2.299c2.967 0 5.938.086 8.898-.057.81-.039 1.588-.761 2.381-1.169-.676-.363-1.348-1.032-2.029-1.042-5.932-.084-11.866-.082-17.799-.006-.709.009-1.41.616-2.115.947.763.441 1.507 1.22 2.291 1.264 2.784.156 5.581.061 8.373.063zm-103.038-.002c2.966 0 5.938.091 8.896-.061.775-.04 1.514-.833 2.268-1.28-.714-.324-1.427-.924-2.146-.933-5.931-.075-11.865-.076-17.797.009-.67.01-1.331.687-1.996 1.055.625.402 1.236 1.123 1.878 1.15 2.961.124 5.931.055 8.897.06zm515.575-.003c3.14 0 6.281.059 9.416-.045.703-.024 1.387-.616 2.08-.947-.598-.437-1.189-1.244-1.793-1.253-6.104-.095-12.208-.096-18.312-.004-.611.009-1.212.802-1.817 1.231.685.338 1.358.941 2.055.97 2.786.113 5.58.047 8.371.048zm-618.878-.001c3.141 0 6.283.064 9.42-.055.641-.024 1.257-.74 1.885-1.137-.493-.357-.982-1.021-1.479-1.028-6.279-.075-12.559-.079-18.838-.021-.542.005-1.079.581-1.618.892.578.446 1.139 1.249 1.736 1.275 2.959.133 5.928.061 8.894.074zm-515.822-.016v.017c3.141 0 6.283.064 9.42-.053.652-.024 1.279-.72 1.917-1.105-.655-.384-1.307-1.092-1.968-1.101-6.105-.077-12.211-.058-18.317.013-.554.006-1.101.563-1.651.864.567.454 1.117 1.276 1.704 1.304 2.96.134 5.929.061 8.895.061zm68.611.02c2.966 0 5.937.086 8.896-.057.807-.038 1.582-.762 2.372-1.171-.675-.361-1.346-1.026-2.025-1.037-5.932-.083-11.865-.082-17.797-.005-.709.009-1.409.625-2.114.96.764.436 1.51 1.205 2.295 1.249 2.784.154 5.581.06 8.373.061zm34.664.001c2.967 0 5.939.089 8.899-.059.796-.039 1.558-.79 2.336-1.215-.695-.348-1.387-.987-2.087-.996-5.933-.08-11.869-.08-17.803 0-.691.009-1.374.648-2.061.995.779.425 1.541 1.172 2.34 1.215 2.786.152 5.584.059 8.376.06zm68.772-.004c2.964 0 5.932.061 8.893-.044.709-.026 1.398-.604 2.097-.93-.591-.442-1.176-1.259-1.774-1.269-6.103-.097-12.208-.099-18.312-.008-.617.009-1.223.79-1.835 1.214.679.346 1.347.962 2.037.987 2.961.112 5.929.049 8.894.05zm35.118.002c2.792 0 5.586.063 8.373-.044.716-.028 1.413-.598 2.118-.918-.59-.448-1.173-1.277-1.77-1.286-6.105-.097-12.213-.097-18.318-.007-.622.009-1.231.777-1.846 1.194.674.353 1.338.985 2.023 1.01 3.136.11 6.279.049 9.42.051zm67.823.001c2.964 0 5.934.088 8.892-.06.79-.039 1.544-.796 2.314-1.224-.693-.343-1.381-.976-2.079-.984-5.929-.079-11.859-.08-17.789.001-.688.009-1.368.658-2.051 1.011.78.418 1.543 1.155 2.344 1.197 2.783.15 5.578.058 8.369.059zm35.258-2.297v.032c-3.315 0-6.631-.044-9.943.05-.485.013-.951.687-1.426 1.055.468.371.931 1.06 1.404 1.065 6.281.082 12.562.091 18.843.042.567-.005 1.131-.531 1.696-.814-.559-.477-1.099-1.337-1.679-1.364-2.959-.14-5.929-.066-8.895-.066zm68.583 2.273c2.965 0 5.931.045 8.893-.04.552-.016 1.088-.557 1.632-.854-.572-.46-1.14-1.31-1.718-1.317-6.276-.084-12.555-.061-18.832.026-.462.006-.915.726-1.372 1.113.485.353.963.997 1.457 1.011 3.312.089 6.627.046 9.94.061zm34.591-2.267v.02c-3.317 0-6.636-.046-9.951.048-.497.014-.976.674-1.463 1.034.461.382.917 1.09 1.384 1.096 6.286.084 12.572.105 18.857.021.58-.008 1.148-.839 1.722-1.288-.548-.31-1.088-.872-1.645-.889-2.966-.09-5.936-.042-8.904-.042z"/><path fill-rule="evenodd" clip-rule="evenodd" fill="#6394EC" d="M1201.052 5.263v94.737h-1200v-42.105c6.449.008 12.898.057 19.346-.025.831-.011 1.653-.704 2.479-1.082-.829-.386-1.656-1.101-2.488-1.105-6.445-.041-12.891.054-19.337.107v-50.526c400-.001 800-.001 1200-.001zm-191.738 52.661c2.979 0 5.962.064 8.938-.046.711-.026 1.399-.634 2.098-.974-.624-.425-1.244-1.21-1.874-1.22-6.135-.091-12.271-.089-18.405.006-.615.01-1.218.807-1.826 1.24.709.33 1.409.919 2.131.944 2.976.109 5.957.046 8.938.05zm103.487-.002c2.959 0 5.92.06 8.876-.043.726-.025 1.432-.585 2.147-.9-.595-.447-1.183-1.272-1.783-1.282-6.264-.093-12.53-.08-18.796-.015-.55.005-1.094.585-1.64.898.599.444 1.183 1.246 1.799 1.271 3.127.131 6.264.061 9.397.071zm-928.942-.004c3.158 0 6.318.069 9.47-.061.609-.025 1.188-.831 1.779-1.276-.562-.315-1.121-.898-1.685-.904-6.139-.068-12.279-.081-18.417 0-.68.009-1.352.688-2.028 1.055.645.395 1.277 1.103 1.937 1.13 2.977.124 5.962.055 8.944.056zm-34.644.002c3.133 0 6.269.061 9.398-.047.695-.023 1.37-.643 2.053-.988-.625-.416-1.244-1.184-1.875-1.194-6.09-.094-12.184-.094-18.275-.017-.692.009-1.376.652-2.064 1 .803.418 1.588 1.151 2.412 1.197 2.776.15 5.566.057 8.351.049zm-102.734.002c2.961 0 5.924.06 8.882-.043.724-.025 1.43-.588 2.145-.904-.596-.445-1.186-1.269-1.788-1.277-6.27-.094-12.542-.081-18.812-.015-.552.005-1.098.593-1.646.909.604.441 1.193 1.237 1.814 1.262 3.131.131 6.269.06 9.405.068zm618.924 0c2.96 0 5.923.059 8.88-.042.732-.025 1.447-.573 2.17-.879-.586-.454-1.167-1.292-1.761-1.302-6.269-.096-12.538-.083-18.806-.021-.558.006-1.109.571-1.664.876.593.452 1.169 1.27 1.779 1.295 3.131.133 6.268.062 9.402.073zm-68.3-2.294c-3.156 0-6.314-.063-9.466.051-.688.024-1.354.684-2.029 1.051.644.396 1.283 1.125 1.932 1.134 6.135.088 12.272.089 18.407-.005.597-.009 1.18-.834 1.77-1.28-.558-.314-1.107-.883-1.674-.901-2.978-.091-5.959-.043-8.94-.05zm102.236 2.296c3.156 0 6.313.062 9.466-.047.7-.024 1.379-.65 2.069-.999-.634-.416-1.262-1.185-1.901-1.194-6.135-.089-12.271-.087-18.405.009-.606.009-1.199.824-1.799 1.265.719.321 1.428.892 2.157.92 2.801.108 5.609.043 8.413.046zm-137.527.01c2.785 0 5.575.091 8.353-.046 1.057-.053 2.088-.631 3.131-.97-.962-.435-1.916-1.225-2.888-1.247-5.394-.123-10.792-.114-16.187-.014-1.053.02-2.095.641-3.143.985 1.141.431 2.259 1.142 3.427 1.236 2.422.192 4.87.058 7.307.056zm-68.696-.025v-.018c3.33 0 6.662.045 9.989-.049.494-.014.969-.688 1.453-1.056-.49-.376-.975-1.072-1.469-1.078-6.31-.08-12.62-.084-18.93-.03-.573.005-1.141.551-1.711.846.576.461 1.134 1.295 1.73 1.322 2.974.138 5.957.063 8.938.063zm275.774.018c2.785 0 5.575.092 8.353-.058.808-.043 1.58-.775 2.368-1.191-.692-.35-1.384-.993-2.081-1.002-6.091-.079-12.185-.08-18.275.013-.623.009-1.233.777-1.851 1.192.696.346 1.382.967 2.088.991 3.128.109 6.265.048 9.398.055zm-309.737.006c2.787 0 5.578.079 8.36-.045.895-.04 1.767-.615 2.65-.945-.78-.44-1.554-1.249-2.342-1.263-5.921-.106-11.846-.089-17.768-.011-.715.009-1.423.612-2.134.94.783.439 1.548 1.215 2.352 1.256 2.955.153 5.92.061 8.882.068zm343.542-.001c2.98 0 5.965.088 8.938-.058.817-.04 1.6-.777 2.397-1.195-.699-.352-1.395-1.001-2.099-1.01-5.96-.081-11.921-.078-17.88.001-.715.009-1.42.625-2.131.96.787.432 1.555 1.191 2.361 1.236 2.8.155 5.61.06 8.414.066zm-412.751-.038c3.331 0 6.664.045 9.992-.048.5-.014.981-.678 1.471-1.041-.485-.381-.965-1.087-1.456-1.093-6.311-.083-12.623-.103-18.933-.014-.581.008-1.149.871-1.723 1.336.568.291 1.131.817 1.707.834 2.979.084 5.961.039 8.942.026zm-34.533.028c3.134 0 6.269.057 9.399-.042.732-.023 1.447-.572 2.17-.878-.586-.454-1.166-1.294-1.758-1.303-6.265-.096-12.532-.083-18.798-.019-.558.005-1.11.571-1.665.876.591.452 1.167 1.265 1.778 1.293 2.952.138 5.915.063 8.874.073zm-68.622-.028c3.332 0 6.665.046 9.994-.049.5-.014.981-.682 1.472-1.048-.486-.379-.968-1.081-1.458-1.087-6.312-.083-12.625-.102-18.937-.013-.58.008-1.148.871-1.722 1.336.569.291 1.131.817 1.708.833 2.979.087 5.962.041 8.943.028zm619.365.03c2.98 0 5.962.064 8.938-.046.71-.026 1.398-.634 2.097-.974-.624-.425-1.244-1.21-1.874-1.22-6.135-.091-12.271-.089-18.405.006-.615.01-1.217.807-1.826 1.24.71.33 1.41.919 2.131.944 2.976.109 5.959.046 8.939.05zm-653.637-.007c3.136 0 6.274.065 9.406-.054.646-.024 1.267-.738 1.899-1.134-.678-.365-1.352-1.039-2.034-1.048-6.096-.083-12.194-.084-18.291.003-.642.009-1.274.744-1.91 1.143.682.364 1.352 1.015 2.047 1.043 2.957.116 5.921.048 8.883.047zm68.729-.017c3.128 0 6.259.069 9.381-.06.591-.025 1.148-.834 1.722-1.281-.556-.299-1.108-.853-1.667-.858-6.082-.065-12.165-.081-18.245.014-.582.009-1.15.854-1.725 1.31.557.289 1.107.811 1.672.827 2.952.082 5.907.038 8.862.048zm103.724-2.242c-3.128 0-6.259-.07-9.381.063-.587.024-1.139.86-1.707 1.322.561.283 1.12.806 1.684.812 6.083.062 12.167.079 18.248-.015.575-.009 1.137-.849 1.705-1.303-.561-.293-1.116-.824-1.686-.841-2.952-.086-5.908-.04-8.863-.038zm102.607 2.244c3.126 0 6.254.068 9.376-.058.608-.024 1.187-.801 1.778-1.231-.536-.314-1.069-.897-1.61-.903-6.077-.072-12.156-.092-18.232-.005-.598.009-1.184.822-1.776 1.262.709.315 1.409.873 2.13.901 2.774.107 5.555.043 8.334.034zm-447.052.006c2.952 0 5.907.065 8.854-.049.672-.026 1.319-.678 1.977-1.042-.642-.391-1.279-1.112-1.926-1.122-5.902-.088-11.807-.088-17.71-.003-.664.009-1.317.699-1.977 1.074.642.38 1.272 1.063 1.929 1.089 2.947.12 5.902.052 8.853.053zm137.878-.043v.043c2.953 0 5.91.067 8.858-.052.657-.027 1.287-.708 1.929-1.089-.485-.359-.968-1.026-1.458-1.032-6.251-.068-12.504-.064-18.755.011-.475.005-.941.697-1.411 1.069.486.35.963.987 1.458 1.002 3.125.094 6.253.048 9.379.048zm756.776.047c2.956 0 5.915.065 8.866-.049.685-.026 1.345-.662 2.016-1.017-.635-.401-1.265-1.14-1.906-1.149-5.912-.09-11.826-.089-17.736-.006-.675.01-1.34.683-2.009 1.048.633.389 1.254 1.087 1.902 1.114 2.951.122 5.911.053 8.867.059zm-34.548.004c2.778 0 5.562.089 8.332-.055.816-.042 1.598-.748 2.395-1.149-.678-.357-1.351-1.015-2.031-1.024-5.903-.08-11.809-.081-17.711.011-.629.01-1.248.764-1.871 1.173.677.346 1.344.964 2.032.99 2.948.111 5.902.047 8.854.054zm103.135-.044v.035c2.952 0 5.906.068 8.854-.054.646-.026 1.265-.728 1.896-1.118-.496-.35-.991-.998-1.49-1.002-6.248-.065-12.498-.06-18.746.019-.464.005-.918.715-1.376 1.098.496.341.984.962 1.49.977 3.121.09 6.247.045 9.372.045zm34.872.026c2.955 0 5.91.044 8.861-.038.573-.016 1.134-.521 1.7-.8-.563-.468-1.119-1.333-1.689-1.342-6.081-.098-12.164-.097-18.244.001-.573.009-1.133.865-1.699 1.329.562.281 1.12.791 1.689.805 3.125.081 6.254.039 9.382.045zm67.772-.025v.034c3.126 0 6.254.064 9.375-.054.643-.024 1.259-.733 1.887-1.126-.499-.347-.995-.991-1.498-.996-6.249-.063-12.498-.058-18.747.021-.46.006-.912.721-1.369 1.105.5.339.99.954 1.5.971 2.948.092 5.901.045 8.852.045zm35.203-2.232c-2.958 0-5.917-.066-8.869.049-.697.026-1.37.662-2.055 1.018.624.4 1.243 1.138 1.872 1.148 5.913.09 11.828.088 17.742.01.686-.008 1.363-.64 2.045-.982-.795-.417-1.573-1.149-2.39-1.193-2.773-.151-5.563-.058-8.345-.05zm-309.7 2.281c2.78 0 5.563.077 8.338-.045.887-.039 1.749-.609 2.624-.936-.774-.436-1.543-1.235-2.325-1.249-5.731-.106-11.466-.089-17.198-.008-.704.01-1.401.625-2.103.959.775.424 1.532 1.17 2.328 1.213 2.772.151 5.557.059 8.336.066zm-34.427-2.283c-2.955 0-5.912-.065-8.862.048-.7.027-1.378.653-2.066 1.004.618.406 1.231 1.154 1.855 1.164 5.907.09 11.818.087 17.727.01.69-.009 1.373-.63 2.059-.968-.79-.421-1.562-1.162-2.372-1.206-2.774-.152-5.559-.059-8.341-.052zm-722.666 2.278c2.954 0 5.911.086 8.858-.057.802-.04 1.571-.773 2.354-1.188-.691-.344-1.378-.976-2.073-.985-5.906-.078-11.814-.079-17.72.016-.617.01-1.222.79-1.833 1.212.691.332 1.372.922 2.075.95 2.777.111 5.559.045 8.339.052zm619.247-.006c2.955 0 5.91.06 8.861-.043.722-.025 1.425-.589 2.136-.905-.594-.439-1.183-1.252-1.783-1.26-6.08-.087-12.163-.066-18.243.007-.541.006-1.074.59-1.609.905.592.43 1.169 1.205 1.779 1.231 2.948.13 5.905.058 8.859.065zm-103.247-.019c3.127 0 6.255.042 9.379-.038.568-.014 1.123-.528 1.684-.811-.566-.462-1.128-1.316-1.703-1.325-6.078-.098-12.159-.084-18.238-.022-.565.006-1.126.554-1.688.85.569.451 1.122 1.265 1.711 1.292 2.945.132 5.902.06 8.855.054z"/><path clip-rule="evenodd" d="M1.052 194.737v-89.474h1200v89.474h-1200z" fill="none"/><path fill-rule="evenodd" clip-rule="evenodd" d="M1.052 294.736h1200v5.264h-1200v-5.264zM1.052 194.737h1200v5.263h-1200v-5.263zM1201.052 105.263h-1200v-5.263h1200v5.263zM1201.052 5.263h-1200c-.796-3.604.607-4.31 4.21-4.309 397.193.104 794.386.104 1191.579 0 3.604-.001 5.008.706 4.211 4.309z"/><path clip-rule="evenodd" d="M1.052 300h1200c-.176.351-.332.993-.529 1.005-1.398.089-2.805.048-4.208.048-396.842 0-793.684.001-1190.526-.043-1.58 0-3.159-.659-4.737-1.01z" fill="none"/><path fill-rule="evenodd" clip-rule="evenodd" fill="#333" d="M1.052 55.79c6.446-.054 12.892-.148 19.337-.107.832.005 1.659.72 2.488 1.105-.826.377-1.648 1.071-2.479 1.082-6.448.082-12.898.033-19.346.025v-2.105zM1.052 250.526c6.615-.061 13.231-.168 19.846-.119.737.005 1.467.89 2.2 1.368-.729.294-1.456.836-2.187.842-6.619.059-13.24.022-19.86.015l.001-2.106z"/><path fill-rule="evenodd" clip-rule="evenodd" fill="#363638" d="M80.787 252.656c-3.125-.007-6.251.062-9.371-.069-.587-.025-1.141-.856-1.709-1.315.55-.306 1.096-.871 1.649-.877 6.248-.069 12.497-.088 18.744-.01.664.008 1.318.724 1.978 1.111-.639.389-1.267 1.089-1.92 1.114-3.119.119-6.246.053-9.371.046z"/><path fill-rule="evenodd" clip-rule="evenodd" fill="#383437" d="M184.157 252.668c-2.982-.003-5.966.063-8.943-.051-.71-.027-1.396-.66-2.092-1.015.617-.423 1.229-1.203 1.853-1.212 6.138-.093 12.278-.092 18.415-.012.7.01 1.391.668 2.086 1.025-.792.421-1.567 1.168-2.376 1.208-2.975.147-5.962.059-8.943.057zM287.314 252.668c-2.982-.003-5.966.063-8.944-.051-.709-.027-1.395-.66-2.092-1.015.617-.423 1.229-1.203 1.853-1.212 6.137-.093 12.277-.092 18.415-.012.7.01 1.391.668 2.086 1.025-.792.421-1.566 1.168-2.376 1.208-2.974.147-5.96.059-8.942.057zM390.792 252.669c-2.981.003-5.968.093-8.943-.056-.824-.041-1.614-.792-2.419-1.218.689-.355 1.375-1.009 2.068-1.019 6.138-.078 12.278-.079 18.416.016.632.011 1.253.795 1.879 1.221-.685.35-1.36.978-2.058 1.004-2.977.113-5.962.047-8.943.052zM493.713 250.331c3.123.006 6.249-.062 9.368.063.638.025 1.246.781 1.868 1.201-.67.356-1.337 1.012-2.012 1.021-6.072.081-12.146.081-18.218.005-.714-.008-1.42-.615-2.13-.946.759-.45 1.499-1.248 2.278-1.289 2.943-.154 5.897-.061 8.846-.055z"/><path fill-rule="evenodd" clip-rule="evenodd" fill="#363638" d="M527.596 252.646c-2.951 0-5.904.046-8.853-.04-.563-.016-1.111-.551-1.667-.847.559-.47 1.112-1.341 1.677-1.348 6.421-.084 12.843-.061 19.265.024.48.007.951.713 1.426 1.094-.478.365-.948 1.033-1.435 1.047-3.469.09-6.942.048-10.413.048v.022z"/><path fill-rule="evenodd" clip-rule="evenodd" fill="#383437" d="M596.72 252.625c-3.156 0-6.314.05-9.467-.048-.512-.016-1.003-.679-1.503-1.042.467-.382.93-1.091 1.401-1.097 6.486-.075 12.974-.078 19.461-.009.502.005.996.679 1.495 1.042-.639.397-1.265 1.111-1.917 1.138-3.152.119-6.313.053-9.47.053v-.037z"/><path fill-rule="evenodd" clip-rule="evenodd" fill="#363638" d="M631.645 252.664c-3.125-.001-6.252.061-9.373-.049-.692-.024-1.363-.658-2.044-1.012.611-.423 1.218-1.204 1.835-1.212 6.248-.091 12.5-.091 18.748.005.604.01 1.195.836 1.791 1.283-.701.329-1.392.916-2.104.941-2.947.109-5.902.046-8.853.044z"/><path fill-rule="evenodd" clip-rule="evenodd" fill="#383437" d="M700.188 252.673c-2.982-.002-5.969.09-8.942-.065-.802-.041-1.564-.837-2.346-1.287.715-.331 1.428-.939 2.148-.948 5.962-.078 11.926-.096 17.887.015.784.014 1.553.847 2.329 1.301-.887.329-1.761.902-2.659.942-2.801.122-5.611.044-8.417.042z"/><path fill-rule="evenodd" clip-rule="evenodd" fill="#363638" d="M734.484 252.656c-3.127-.006-6.255.063-9.374-.068-.592-.024-1.147-.852-1.719-1.31.548-.307 1.091-.875 1.643-.882 6.251-.07 12.502-.09 18.752-.012.669.008 1.328.722 1.992 1.107-.64.391-1.267 1.093-1.919 1.118-3.121.12-6.249.054-9.375.047z"/><path fill-rule="evenodd" clip-rule="evenodd" fill="#383437" d="M803.321 252.663c-3.157-.004-6.316.068-9.469-.065-.615-.025-1.198-.848-1.796-1.303.549-.316 1.096-.901 1.648-.907 6.313-.067 12.627-.082 18.939.012.599.009 1.186.855 1.777 1.313-.718.317-1.429.885-2.157.91-2.977.105-5.96.043-8.942.04z"/><path fill-rule="evenodd" clip-rule="evenodd" fill="#363638" d="M837.642 252.656c-3.126-.006-6.254.063-9.374-.068-.591-.024-1.146-.852-1.719-1.31.548-.307 1.092-.875 1.643-.882 6.251-.07 12.502-.09 18.752-.012.67.008 1.328.722 1.992 1.107-.639.391-1.266 1.093-1.919 1.118-3.121.12-6.249.054-9.375.047z"/><path fill-rule="evenodd" clip-rule="evenodd" fill="#383437" d="M905.808 252.663c-2.806.003-5.614.07-8.417-.042-.73-.028-1.44-.614-2.16-.945.592-.446 1.179-1.271 1.777-1.28 6.312-.087 12.626-.067 18.938.005.548.007 1.089.607 1.634.931-.592.443-1.17 1.246-1.777 1.27-3.327.125-6.662.058-9.995.061z"/><path fill-rule="evenodd" clip-rule="evenodd" fill="#363638" d="M940.91 252.67c-2.953-.001-5.909.087-8.854-.06-.801-.04-1.566-.794-2.348-1.221.683-.353 1.362-1.002 2.049-1.012 6.076-.08 12.154-.081 18.23-.001.705.01 1.402.656 2.104 1.008-.775.429-1.535 1.187-2.329 1.227-2.945.148-5.901.059-8.852.059z"/><path fill-rule="evenodd" clip-rule="evenodd" fill="#383437" d="M1009.667 252.673c-2.982-.002-5.97.09-8.943-.063-.803-.043-1.567-.837-2.35-1.286.714-.331 1.426-.942 2.146-.951 5.962-.078 11.928-.096 17.891.015.785.014 1.555.846 2.333 1.299-.886.33-1.76.904-2.658.944-2.803.122-5.612.044-8.419.042z"/><path fill-rule="evenodd" clip-rule="evenodd" fill="#363638" d="M1043.99 252.658c-3.124-.003-6.251.065-9.371-.063-.601-.024-1.17-.831-1.755-1.277.533-.318 1.064-.909 1.603-.914 6.419-.062 12.841-.06 19.261.014.506.007 1.004.672 1.506 1.03-.623.405-1.233 1.135-1.872 1.159-3.121.122-6.247.055-9.372.051zM1147.019 252.664c-2.951 0-5.904.062-8.852-.043-.722-.025-1.425-.595-2.136-.914.748-.46 1.489-1.305 2.246-1.318 6.073-.106 12.15-.093 18.225.002.637.01 1.262.775 1.894 1.19-.667.36-1.325 1.011-2.005 1.034-3.121.113-6.248.049-9.372.049z"/><path fill-rule="evenodd" clip-rule="evenodd" fill="#333" d="M975.702 250.369c2.967 0 5.935-.048 8.897.041.56.017 1.104.565 1.654.869-.564.454-1.123 1.293-1.694 1.301-6.28.088-12.563.069-18.844-.012-.473-.005-.935-.698-1.4-1.072.479-.37.952-1.047 1.442-1.062 3.312-.095 6.629-.049 9.944-.049l.001-.016zM872.532 250.366c2.964 0 5.933-.075 8.892.063.578.027 1.119.88 1.678 1.353-.559.285-1.115.813-1.677.818-6.278.052-12.557.045-18.834-.033-.477-.006-.943-.685-1.414-1.049.472-.376.935-1.062 1.417-1.074 3.31-.096 6.624-.051 9.938-.051v-.027zM1078.423 252.654c-2.966 0-5.933.062-8.894-.048-.689-.025-1.358-.642-2.036-.987.611-.424 1.218-1.205 1.835-1.214 6.103-.091 12.209-.089 18.312.008.598.01 1.184.826 1.774 1.269-.699.325-1.389.903-2.098.93-2.961.104-5.928.043-8.893.042z"/><path fill-rule="evenodd" clip-rule="evenodd" fill="#333334" d="M1113.464 250.361c2.966 0 5.937-.074 8.896.065.579.027 1.119.888 1.679 1.364-.565.283-1.129.81-1.696.814-6.281.049-12.562.04-18.844-.042-.472-.006-.936-.693-1.403-1.064.476-.369.941-1.043 1.425-1.056 3.312-.094 6.629-.05 9.943-.05v-.031zM768.539 252.659c-2.792-.001-5.589.094-8.373-.062-.784-.044-1.528-.822-2.291-1.264.705-.331 1.406-.938 2.115-.947 5.933-.076 11.867-.078 17.799.006.682.01 1.354.679 2.029 1.042-.793.408-1.571 1.13-2.381 1.169-2.96.143-5.931.057-8.898.056zM665.501 252.656c-2.966-.003-5.936.065-8.896-.058-.642-.027-1.253-.748-1.878-1.15.665-.368 1.326-1.045 1.996-1.055 5.932-.085 11.866-.084 17.797-.009.719.009 1.432.608 2.146.933-.754.447-1.492 1.24-2.268 1.28-2.96.152-5.931.061-8.897.059z"/><path fill-rule="evenodd" clip-rule="evenodd" fill="#333" d="M1181.076 252.654c-2.791 0-5.585.065-8.371-.047-.696-.028-1.37-.632-2.055-.97.605-.43 1.206-1.223 1.817-1.231 6.104-.092 12.208-.091 18.312.004.604.009 1.195.816 1.793 1.253-.693.331-1.377.923-2.08.947-3.135.104-6.276.045-9.416.044z"/><path fill-rule="evenodd" clip-rule="evenodd" fill="#333334" d="M562.198 252.646c-2.966-.006-5.935.066-8.895-.066-.597-.026-1.158-.829-1.736-1.275.54-.311 1.076-.887 1.618-.892 6.279-.058 12.559-.054 18.838.021.497.007.986.671 1.479 1.028-.628.396-1.244 1.112-1.885 1.137-3.136.12-6.278.055-9.419.047zM46.376 252.638c-2.966 0-5.935.073-8.895-.062-.586-.027-1.137-.85-1.704-1.304.55-.301 1.097-.858 1.651-.864 6.105-.07 12.212-.09 18.317-.013.661.009 1.312.717 1.968 1.101-.638.386-1.266 1.081-1.917 1.105-3.137.117-6.279.053-9.42.053v-.016z"/><path fill-rule="evenodd" clip-rule="evenodd" fill="#333" d="M114.987 252.658c-2.792-.001-5.589.093-8.373-.061-.785-.044-1.531-.813-2.295-1.249.705-.335 1.405-.951 2.114-.96 5.932-.077 11.865-.078 17.797.005.68.011 1.35.676 2.025 1.037-.79.409-1.564 1.133-2.372 1.171-2.959.143-5.93.057-8.896.057z"/><path fill-rule="evenodd" clip-rule="evenodd" fill="#333334" d="M149.651 252.659c-2.792-.001-5.59.092-8.375-.06-.8-.043-1.562-.79-2.34-1.215.687-.347 1.369-.986 2.061-.995 5.934-.08 11.87-.08 17.803 0 .7.009 1.392.648 2.087.996-.778.425-1.54 1.176-2.336 1.215-2.96.148-5.932.059-8.9.059z"/><path fill-rule="evenodd" clip-rule="evenodd" fill="#333" d="M218.423 252.654c-2.965 0-5.933.062-8.894-.048-.69-.025-1.358-.642-2.037-.987.612-.424 1.218-1.205 1.835-1.214 6.103-.091 12.208-.089 18.312.008.598.01 1.183.826 1.774 1.269-.699.325-1.388.903-2.097.93-2.961.104-5.928.043-8.893.042z"/><path fill-rule="evenodd" clip-rule="evenodd" fill="#333334" d="M253.541 252.656c-3.141-.001-6.284.06-9.42-.05-.685-.024-1.35-.657-2.023-1.01.615-.417 1.225-1.186 1.846-1.194 6.105-.09 12.213-.09 18.318.007.597.009 1.18.838 1.77 1.286-.705.32-1.401.89-2.118.918-2.788.108-5.582.044-8.373.043z"/><path fill-rule="evenodd" clip-rule="evenodd" fill="#333" d="M321.364 252.657c-2.791 0-5.586.092-8.369-.058-.8-.042-1.563-.779-2.344-1.197.684-.353 1.363-1.002 2.051-1.011 5.929-.081 11.86-.08 17.789-.001.698.009 1.386.642 2.079.984-.771.428-1.524 1.185-2.314 1.224-2.958.148-5.927.06-8.892.059z"/><path fill-rule="evenodd" clip-rule="evenodd" fill="#333334" d="M356.622 250.361c2.966 0 5.936-.074 8.896.065.58.027 1.12.888 1.679 1.364-.565.283-1.129.81-1.696.814-6.281.049-12.562.04-18.843-.042-.473-.006-.936-.694-1.404-1.065.475-.368.941-1.042 1.426-1.055 3.312-.094 6.628-.05 9.943-.05l-.001-.031z"/><path fill-rule="evenodd" clip-rule="evenodd" fill="#333" d="M425.205 252.626c-3.313-.007-6.628.036-9.939-.054-.494-.014-.972-.658-1.457-1.011.457-.388.91-1.107 1.372-1.113 6.276-.087 12.555-.11 18.832-.026.578.008 1.146.857 1.718 1.317-.543.298-1.08.839-1.632.854-2.963.086-5.929.041-8.894.033z"/><path fill-rule="evenodd" clip-rule="evenodd" fill="#333334" d="M459.796 250.367c2.968 0 5.938-.048 8.904.042.557.017 1.097.579 1.645.889-.574.449-1.143 1.28-1.722 1.288-6.285.084-12.572.062-18.857-.021-.466-.006-.922-.714-1.384-1.096.487-.36.966-1.021 1.463-1.034 3.315-.094 6.633-.048 9.951-.048v-.02z"/><path fill-rule="evenodd" clip-rule="evenodd" fill="#343438" d="M1009.314 57.922c-2.981-.002-5.963.061-8.939-.047-.722-.025-1.422-.615-2.131-.944.608-.433 1.211-1.23 1.826-1.24 6.134-.095 12.271-.097 18.405-.006.63.01 1.25.795 1.874 1.22-.698.34-1.387.947-2.098.974-2.975.109-5.957.045-8.937.043z"/><path fill-rule="evenodd" clip-rule="evenodd" fill="#353536" d="M1112.801 57.917c-3.133-.005-6.27.065-9.396-.065-.616-.026-1.2-.828-1.799-1.271.546-.313 1.09-.893 1.64-.898 6.266-.065 12.532-.079 18.796.015.601.009 1.188.835 1.783 1.282-.716.314-1.422.875-2.147.9-2.957.102-5.918.042-8.877.037z"/><path fill-rule="evenodd" clip-rule="evenodd" fill="#343438" d="M183.859 57.917c-2.981-.001-5.967.068-8.943-.055-.66-.027-1.292-.735-1.937-1.13.676-.367 1.348-1.046 2.028-1.055 6.138-.081 12.278-.068 18.417 0 .564.006 1.124.589 1.685.904-.592.445-1.17 1.25-1.779 1.276-3.153.131-6.313.061-9.471.06z"/><path fill-rule="evenodd" clip-rule="evenodd" fill="#353536" d="M149.215 57.924c-2.785.004-5.575.097-8.353-.053-.823-.045-1.608-.779-2.412-1.197.688-.348 1.373-.991 2.064-1 6.092-.077 12.185-.077 18.275.017.631.01 1.25.778 1.875 1.194-.684.345-1.358.964-2.053.988-3.128.107-6.263.047-9.396.051zM46.481 57.918c-3.136-.004-6.274.067-9.404-.064-.621-.025-1.21-.821-1.814-1.262.548-.316 1.094-.904 1.646-.909 6.27-.066 12.542-.079 18.812.015.602.009 1.192.833 1.788 1.277-.714.316-1.42.878-2.145.904-2.959.103-5.922.043-8.883.039zM665.405 57.917c-3.135-.006-6.271.065-9.401-.067-.61-.026-1.187-.843-1.779-1.295.555-.305 1.106-.87 1.664-.876 6.268-.062 12.537-.075 18.806.021.594.009 1.175.848 1.761 1.302-.723.307-1.438.854-2.17.879-2.958.1-5.921.041-8.881.036z"/><path fill-rule="evenodd" clip-rule="evenodd" fill="#343438" d="M597.105 55.632c2.98.003 5.962-.045 8.939.045.566.018 1.116.586 1.674.901-.59.446-1.173 1.271-1.77 1.28-6.135.094-12.272.093-18.407.005-.649-.009-1.288-.738-1.932-1.134.676-.367 1.341-1.026 2.029-1.051 3.154-.113 6.311-.05 9.467-.046zM699.341 57.922c-2.804-.001-5.612.064-8.413-.045-.729-.028-1.438-.599-2.157-.92.6-.441 1.192-1.255 1.799-1.265 6.134-.097 12.271-.099 18.405-.009.64.009 1.268.778 1.901 1.194-.69.349-1.369.975-2.069.999-3.153.11-6.31.048-9.466.046z"/><path fill-rule="evenodd" clip-rule="evenodd" fill="#353536" d="M561.814 57.935c-2.437 0-4.885.135-7.306-.058-1.168-.094-2.286-.805-3.427-1.236 1.047-.344 2.089-.965 3.143-.985 5.395-.1 10.793-.109 16.187.014.972.022 1.925.812 2.888 1.247-1.043.339-2.074.917-3.131.97-2.779.138-5.569.047-8.354.048z"/><path fill-rule="evenodd" clip-rule="evenodd" fill="#343438" d="M493.118 57.909c-2.98 0-5.964.075-8.938-.063-.596-.027-1.154-.861-1.73-1.322.57-.295 1.138-.841 1.711-.846 6.31-.055 12.62-.05 18.93.03.494.006.979.702 1.469 1.078-.484.369-.959 1.042-1.453 1.056-3.328.095-6.659.049-9.989.049v.018z"/><path fill-rule="evenodd" clip-rule="evenodd" fill="#353536" d="M768.892 57.923c-3.133-.003-6.27.059-9.398-.05-.706-.024-1.392-.645-2.088-.991.617-.416 1.228-1.184 1.851-1.192 6.091-.092 12.185-.091 18.275-.013.697.009 1.389.652 2.081 1.002-.788.416-1.561 1.147-2.368 1.191-2.778.149-5.568.057-8.353.053zM459.155 57.93c-2.962-.003-5.928.088-8.882-.064-.803-.042-1.569-.817-2.352-1.256.711-.328 1.419-.931 2.134-.94 5.922-.078 11.847-.096 17.768.011.788.014 1.562.822 2.342 1.263-.883.33-1.755.905-2.65.945-2.782.122-5.573.044-8.36.041z"/><path fill-rule="evenodd" clip-rule="evenodd" fill="#343438" d="M802.697 57.929c-2.805-.003-5.614.092-8.412-.062-.807-.045-1.574-.805-2.361-1.236.711-.334 1.416-.951 2.131-.96 5.959-.079 11.92-.082 17.88-.001.704.009 1.399.658 2.099 1.01-.798.417-1.58 1.155-2.397 1.195-2.975.145-5.959.057-8.94.054zM389.946 57.9c-2.981.007-5.963.052-8.941-.033-.576-.017-1.139-.543-1.707-.834.574-.465 1.142-1.328 1.723-1.336 6.31-.089 12.623-.069 18.933.014.491.006.971.712 1.456 1.093-.49.363-.972 1.027-1.471 1.041-3.329.094-6.662.049-9.993.055z"/><path fill-rule="evenodd" clip-rule="evenodd" fill="#353536" d="M355.413 57.917c-2.959-.005-5.921.07-8.874-.066-.611-.028-1.187-.841-1.778-1.293.554-.305 1.107-.871 1.665-.876 6.266-.063 12.533-.077 18.798.019.593.009 1.172.849 1.758 1.303-.723.306-1.438.855-2.17.878-3.131.097-6.266.04-9.399.035z"/><path fill-rule="evenodd" clip-rule="evenodd" fill="#343438" d="M286.791 57.901c-2.981.006-5.963.052-8.942-.033-.577-.017-1.139-.542-1.708-.833.574-.465 1.142-1.328 1.722-1.336 6.311-.089 12.625-.07 18.937.013.49.006.972.708 1.458 1.087-.491.366-.972 1.034-1.472 1.048-3.33.093-6.663.047-9.995.054zM906.156 57.922c-2.98-.002-5.963.061-8.939-.047-.721-.025-1.421-.615-2.131-.944.609-.433 1.211-1.23 1.826-1.24 6.134-.095 12.271-.097 18.405-.006.63.01 1.25.795 1.874 1.22-.698.34-1.387.947-2.097.974-2.976.109-5.957.045-8.938.043z"/><path fill-rule="evenodd" clip-rule="evenodd" fill="#353536" d="M252.519 57.917c-2.961.001-5.926.068-8.883-.049-.695-.028-1.365-.679-2.047-1.043.636-.398 1.268-1.133 1.91-1.143 6.096-.087 12.194-.086 18.291-.003.683.009 1.356.683 2.034 1.048-.633.396-1.253 1.11-1.899 1.134-3.133.121-6.271.056-9.406.056z"/><path fill-rule="evenodd" clip-rule="evenodd" fill="#333" d="M321.248 57.895c-2.955-.005-5.91.04-8.862-.044-.564-.016-1.115-.538-1.672-.827.575-.456 1.143-1.3 1.725-1.31 6.08-.095 12.163-.079 18.245-.014.559.005 1.111.559 1.667.858-.573.447-1.131 1.256-1.722 1.281-3.123.13-6.254.061-9.381.056zM424.973 55.657c2.955-.001 5.91-.047 8.862.038.569.017 1.125.548 1.686.841-.568.455-1.13 1.294-1.705 1.303-6.082.093-12.166.077-18.248.015-.564-.005-1.123-.529-1.684-.812.568-.461 1.12-1.297 1.707-1.322 3.122-.132 6.253-.062 9.382-.063zM527.579 57.907c-2.779.004-5.56.067-8.334-.039-.721-.028-1.421-.586-2.13-.901.592-.44 1.178-1.253 1.776-1.262 6.077-.087 12.155-.067 18.232.005.541.006 1.074.589 1.61.903-.591.43-1.17 1.207-1.778 1.231-3.122.126-6.25.058-9.376.063zM80.527 57.908c-2.952 0-5.906.067-8.853-.053-.657-.026-1.287-.708-1.929-1.089.659-.375 1.312-1.065 1.977-1.074 5.903-.085 11.808-.085 17.71.003.647.01 1.284.731 1.926 1.122-.658.364-1.305 1.016-1.977 1.042-2.947.114-5.902.049-8.854.049zM218.405 57.865c-3.126 0-6.254.046-9.378-.047-.495-.015-.972-.652-1.458-1.002.47-.372.936-1.063 1.411-1.069 6.251-.076 12.503-.079 18.755-.011.49.005.973.672 1.458 1.032-.642.38-1.272 1.062-1.929 1.089-2.949.119-5.905.052-8.858.052l-.001-.044zM975.181 57.909c-2.956-.003-5.916.065-8.867-.056-.648-.027-1.27-.725-1.902-1.114.669-.365 1.334-1.039 2.009-1.048 5.91-.083 11.824-.084 17.736.006.642.01 1.271.749 1.906 1.149-.671.355-1.331.991-2.016 1.017-2.951.114-5.91.049-8.866.046zM940.633 57.913c-2.952-.003-5.906.06-8.854-.051-.688-.026-1.355-.645-2.032-.99.623-.409 1.242-1.163 1.871-1.173 5.902-.092 11.808-.091 17.711-.011.681.009 1.354.667 2.031 1.024-.797.401-1.578 1.107-2.395 1.149-2.771.144-5.554.055-8.332.052zM1043.768 57.872c-3.125 0-6.251.045-9.373-.046-.506-.014-.994-.636-1.49-.977.458-.383.912-1.093 1.376-1.098 6.248-.079 12.498-.083 18.746-.019.499.005.994.653 1.49 1.002-.631.391-1.249 1.092-1.896 1.118-2.947.122-5.901.054-8.854.054l.001-.034zM1078.64 57.895c-3.128-.003-6.257.039-9.382-.042-.569-.014-1.127-.524-1.689-.805.566-.463 1.126-1.319 1.699-1.329 6.08-.098 12.163-.099 18.244-.001.57.009 1.126.875 1.689 1.342-.566.279-1.127.784-1.7.8-2.951.082-5.906.038-8.861.035zM1146.412 57.873c-2.951 0-5.904.048-8.853-.045-.51-.017-1-.632-1.5-.971.457-.385.909-1.099 1.369-1.105 6.249-.079 12.498-.084 18.747-.021.503.005.999.648 1.498.996-.628.393-1.244 1.102-1.887 1.126-3.121.118-6.249.054-9.375.054l.001-.034zM1181.615 55.636c2.782-.003 5.571-.097 8.346.054.816.044 1.595.776 2.39 1.193-.682.343-1.359.974-2.045.982-5.914.078-11.829.08-17.742-.01-.629-.01-1.248-.748-1.872-1.148.685-.356 1.357-.991 2.055-1.018 2.951-.114 5.91-.048 8.868-.053zM871.915 57.918c-2.779-.004-5.564.089-8.336-.062-.796-.043-1.553-.789-2.328-1.213.701-.334 1.398-.949 2.103-.959 5.732-.081 11.467-.098 17.198.008.782.014 1.551.813 2.325 1.249-.875.327-1.737.896-2.624.936-2.774.122-5.558.045-8.338.041zM837.488 55.636c2.781-.003 5.566-.097 8.34.055.811.044 1.582.785 2.372 1.206-.686.338-1.368.959-2.059.968-5.908.077-11.819.08-17.727-.01-.624-.01-1.237-.758-1.855-1.164.688-.351 1.366-.977 2.066-1.004 2.951-.113 5.908-.048 8.863-.051zM114.822 57.913c-2.78-.003-5.562.062-8.338-.049-.703-.028-1.384-.618-2.075-.95.61-.422 1.215-1.202 1.833-1.212 5.905-.095 11.813-.094 17.72-.016.695.009 1.382.642 2.073.985-.784.415-1.552 1.149-2.354 1.188-2.948.144-5.905.058-8.859.054zM734.069 57.908c-2.954-.003-5.911.068-8.859-.062-.61-.026-1.188-.801-1.779-1.231.535-.315 1.068-.899 1.609-.905 6.08-.073 12.163-.094 18.243-.007.601.008 1.189.821 1.783 1.26-.711.316-1.414.88-2.136.905-2.951.103-5.906.043-8.861.04zM630.822 57.895c-2.953.003-5.91.076-8.856-.058-.589-.026-1.142-.841-1.711-1.292.562-.296 1.123-.844 1.688-.85 6.079-.062 12.16-.076 18.238.022.575.009 1.137.863 1.703 1.325-.561.283-1.115.797-1.684.811-3.123.081-6.251.039-9.378.042z"/></svg>