<svg xmlns="http://www.w3.org/2000/svg" width="96" height="96" viewBox="0 0 96 96"><path d="M13 97v-94h73v94h-73zm51.874-45.887c.24 2.905.556 5.193.596 7.485.185 10.364-2.993 13.64-13.069 13.612-15.615-.043-27.339-15.136-24.404-31.416 1.895-10.509 9.078-18.734 18.735-20.357 8.291-1.394 17.111-1.387 23.235 10.817.457.911 1.646 1.454 2.495 2.167l1.197-.738-1.884-10.417c-10.151-4.404-20.191-4.354-30.262-2.147-11.426 2.505-20.259 13.828-20.627 25.86-.37 12.102 6.785 22.58 17.929 25.961 9.417 2.856 18.739 1.896 27.965-1.102 3.834-1.246 5.646-3.699 5.47-7.82-.181-4.237-.04-8.488-.04-12.678l6.35-1.561-.105-.376h-21.998l-.089.583c2.636.66 5.274 1.32 8.506 2.127z" fill="none"/><path fill-rule="evenodd" clip-rule="evenodd" d="M64.874 51.113c-3.232-.808-5.87-1.467-8.508-2.125l.089-.583h21.998l.105.376-6.35 1.561c0 4.189-.141 8.44.04 12.678.176 4.121-1.636 6.574-5.47 7.82-9.227 2.998-18.549 3.958-27.965 1.102-11.143-3.381-18.297-13.86-17.928-25.962.368-12.033 9.201-23.355 20.627-25.86 10.07-2.208 20.11-2.257 30.262 2.147l1.884 10.417-1.197.738c-.849-.713-2.038-1.256-2.495-2.167-6.124-12.204-14.944-12.21-23.235-10.817-9.657 1.623-16.84 9.848-18.735 20.357-2.935 16.28 8.79 31.373 24.404 31.416 10.076.027 13.254-3.248 13.069-13.612-.039-2.292-.355-4.58-.595-7.486z"/></svg>